<svg id="Layer_1" data-name="Layer 1" xmlns="http://www.w3.org/2000/svg" viewBox="0 0 90.13 122.53"><defs><style>.cls-1{fill:#ffffff;}</style></defs><title>WINNIE  Brand Final</title><path class="cls-1" d="M75.43,28.07V0H71.07V24.53a44.8,44.8,0,0,0-6.91-4V0H59.79V18.72a44.06,44.06,0,0,0-6.91-1.79V0H48.52V16.38c-1.15-.09-2.29-.18-3.46-.18s-2.31.09-3.45.18V0H37.24V16.93a44.35,44.35,0,0,0-6.91,1.79V0H26V20.51a44.8,44.8,0,0,0-6.91,4V0H14.69V28.07a44.84,44.84,0,0,0,0,66.38v28.08h4.37V98A44.8,44.8,0,0,0,26,102v20.51h4.36V103.8a44.37,44.37,0,0,0,6.91,1.8v16.93h4.37V106.15c1.14.09,2.29.17,3.45.17s2.31-.08,3.46-.17v16.38h4.36V105.6a44.08,44.08,0,0,0,6.91-1.8v18.73h4.37V102a44.8,44.8,0,0,0,6.91-4v24.53h4.36V94.45a44.82,44.82,0,0,0,0-66.38ZM12,61.26a32.83,32.83,0,0,1,2.68-13v26A32.8,32.8,0,0,1,12,61.26Zm7,20.33V40.93A33,33,0,0,1,26,34.34V88.19A33.28,33.28,0,0,1,19.06,81.59Zm11.27,9.22V31.72a32.8,32.8,0,0,1,6.91-2.53V93.34A32.8,32.8,0,0,1,30.33,90.81Zm14.73,3.5a32.79,32.79,0,0,1-3.45-.18V28.4a31.51,31.51,0,0,1,6.91,0V94.13A33,33,0,0,1,45.06,94.31Zm7.82-1V29.19a32.8,32.8,0,0,1,6.91,2.53V90.81A32.8,32.8,0,0,1,52.88,93.34Zm11.28-5.15V34.34a33.22,33.22,0,0,1,6.91,6.59V81.59A33.53,33.53,0,0,1,64.16,88.19ZM75.43,74.27v-26a32.92,32.92,0,0,1,0,26Z"/></svg>