<svg id="Layer_1" data-name="Layer 1" xmlns="http://www.w3.org/2000/svg" viewBox="0 0 94.08 122.36"><defs><style>.cls-1{fill:#9493b1;}</style></defs><title>WINNIE  Brand Final</title><polygon class="cls-1" points="78.86 122.36 83.22 122.36 83.22 48.18 94.08 48.18 94.08 36.7 83.22 36.7 83.22 0 78.86 0 78.86 36.7 68.01 36.7 68.01 48.18 78.86 48.18 78.86 122.36"/><polygon class="cls-1" points="45.34 88.71 45.34 100.19 56.19 100.19 56.19 122.36 60.55 122.36 60.55 100.19 71.41 100.19 71.41 88.71 60.55 88.71 60.55 0 56.19 0 56.19 88.71 45.34 88.71"/><polygon class="cls-1" points="26.07 39.05 26.07 27.58 15.21 27.58 15.21 0 10.85 0 10.85 27.58 0 27.58 0 39.05 10.85 39.05 10.85 122.36 15.21 122.36 15.21 39.05 26.07 39.05"/><polygon class="cls-1" points="22.67 69.62 33.52 69.62 33.52 122.36 37.88 122.36 37.88 69.62 48.74 69.62 48.74 58.14 37.88 58.14 37.88 0 33.52 0 33.52 58.14 22.67 58.14 22.67 69.62"/></svg>