<svg id="Layer_1" data-name="Layer 1" xmlns="http://www.w3.org/2000/svg" viewBox="0 0 211.44 184.58"><defs><style>.cls-1{fill:#ffffff;}</style></defs><title>WINNIE  Brand Final</title><path class="cls-1" d="M6.42,17V25.9H.47v1.24h6V54.46c0,1.07,0,2.22.17,3.46A6.75,6.75,0,0,0,8,61.38,8.84,8.84,0,0,0,11.69,64a19,19,0,0,0,7.14,1.07,21.27,21.27,0,0,0,3.55-.32,9.85,9.85,0,0,0,3.5-1.28,9.57,9.57,0,0,0,2.93-2.8,11.76,11.76,0,0,0,1.82-4.83l-1.33-.27a24.1,24.1,0,0,1-.93,2.75,10.27,10.27,0,0,1-1.46,2.53,7.71,7.71,0,0,1-2.09,1.82,5.59,5.59,0,0,1-2.88.71,4.93,4.93,0,0,1-2.44-.53,3.53,3.53,0,0,1-1.42-1.47,6.52,6.52,0,0,1-.67-2.08,16.2,16.2,0,0,1-.17-2.48V27.14H27.61V25.9H17.24V7.68A18.32,18.32,0,0,1,6.42,17Z"/><path class="cls-1" d="M35.45,62.71H29.59V64H51.85V62.71H46.27v-19a25.37,25.37,0,0,1,.88-7.1,16.77,16.77,0,0,1,2.35-5.05,9.87,9.87,0,0,1,3.42-3.06,8.69,8.69,0,0,1,4.08-1,5.13,5.13,0,0,1,4.08,1.73c1,1.15,1.51,3,1.51,5.45v28h-5.5V64H79.35V62.71H73.41v-25q0-5.87-3.24-9.23T61.08,25.1a16.45,16.45,0,0,0-6.61,1.16,15.45,15.45,0,0,0-4.3,2.7,12.51,12.51,0,0,0-2.53,3.1c-.56,1-1,1.82-1.2,2.36h-.17V0H29.59V1.24h5.86Z"/><path class="cls-1" d="M84.92,59.74a20.63,20.63,0,0,0,7,4,26.15,26.15,0,0,0,8.6,1.38A17.81,17.81,0,0,0,107.14,64a16,16,0,0,0,4.61-2.75,13.74,13.74,0,0,0,2.93-3.55,15.32,15.32,0,0,0,1.5-3.59l-1.24-.45a9.73,9.73,0,0,1-.84,2.49,13.18,13.18,0,0,1-2.31,3.41,14.82,14.82,0,0,1-4,3.06,12.3,12.3,0,0,1-6,1.33,10.06,10.06,0,0,1-6.21-1.68A10.73,10.73,0,0,1,92.24,58a17.94,17.94,0,0,1-1.42-5.86q-.27-3.24-.27-6.43v-4h26.17a17.44,17.44,0,0,0-1.6-7.76A15.69,15.69,0,0,0,111,28.65a16.75,16.75,0,0,0-5.59-3,20.62,20.62,0,0,0-6.21-1,19.26,19.26,0,0,0-8.11,1.73,22.41,22.41,0,0,0-6.57,4.52,21.05,21.05,0,0,0-4.39,6.43,18.45,18.45,0,0,0-1.59,7.45,20.79,20.79,0,0,0,1.68,8.56A18.27,18.27,0,0,0,84.92,59.74Zm5.94-24.13a18.42,18.42,0,0,1,1-4.7,8.58,8.58,0,0,1,2.44-3.59A6.89,6.89,0,0,1,99,25.9a5.09,5.09,0,0,1,3.32,1A5.53,5.53,0,0,1,104,29.27a9.66,9.66,0,0,1,.62,2.84c.06,1,.09,1.74.09,2.39v6H90.55C90.61,38.91,90.71,37.3,90.86,35.61Z"/><path class="cls-1" d="M51.3,110v1.24H73.21V110H67.35V85.77c0-1.06-.07-2.36-.22-3.9a10.57,10.57,0,0,0-1.46-4.39,10.12,10.12,0,0,0-4-3.59q-2.74-1.52-7.8-1.51a17.25,17.25,0,0,0-2.48.22,12.11,12.11,0,0,0-3.2,1,14.35,14.35,0,0,0-3.32,2.12,13.33,13.33,0,0,0-3,3.77c-.47-.82-1-1.65-1.55-2.48a9.44,9.44,0,0,0-2.21-2.26A12.13,12.13,0,0,0,34.67,73a17.43,17.43,0,0,0-5.19-.66,13.82,13.82,0,0,0-5,.8,14.13,14.13,0,0,0-3.55,1.9,11.47,11.47,0,0,0-2.35,2.31c-.59.8-1.07,1.49-1.42,2.08H17V73.18H.47v1.24H6.33V110H.47v1.24H22.38V110H17.15V88.34c0-1.47,0-2.73.13-3.77a17.81,17.81,0,0,1,.44-2.75,8.62,8.62,0,0,1,.85-2.12,13.31,13.31,0,0,1,1.24-1.82A8,8,0,0,1,26,74.77a5.38,5.38,0,0,1,3.72,1.55q1.7,1.56,1.69,5.46V110H26.11v1.24H47.48V110H42.25V83.82a8.56,8.56,0,0,1,.93-4.12,9,9,0,0,1,2.26-2.8,10.35,10.35,0,0,1,2.75-1.6,7.23,7.23,0,0,1,2.4-.53,5.16,5.16,0,0,1,4.57,2,10.09,10.09,0,0,1,1.37,5.72V110Z"/><path class="cls-1" d="M118.64,111.23V110h-5.85V73.18H96.11v1.24H102V97.3a16,16,0,0,1-.67,4.61,12.48,12.48,0,0,1-1.86,3.86,9.32,9.32,0,0,1-2.88,2.62,7.34,7.34,0,0,1-3.73,1c-2.25,0-3.81-.79-4.7-2.36a11.39,11.39,0,0,1-1.33-5.72V73.18H70v1.24h6v25.63q0,6.48,3.28,9.18t9.49,2.71a17.41,17.41,0,0,0,4-.49,14.76,14.76,0,0,0,3.86-1.51,14.36,14.36,0,0,0,3.24-2.48A9.77,9.77,0,0,0,102,104h.17v7.19Z"/><path class="cls-1" d="M141.08,88.25l-7.54-2.57A18.42,18.42,0,0,1,130,84a7.34,7.34,0,0,1-2-1.68,4.51,4.51,0,0,1-.8-1.64,7.25,7.25,0,0,1-.17-1.42,5.07,5.07,0,0,1,2.44-4.57,9.72,9.72,0,0,1,5.36-1.55,11.17,11.17,0,0,1,4.61.84,9,9,0,0,1,3.15,2.3,14.82,14.82,0,0,1,2.22,3.42c.62,1.3,1.23,2.66,1.82,4.08h1.15V73h-1.24a3.83,3.83,0,0,1-.44.8c-.18.23-.59.35-1.24.35a4.58,4.58,0,0,1-1.47-.35c-.62-.24-1.33-.49-2.13-.76s-1.68-.51-2.66-.75a13.09,13.09,0,0,0-3.15-.36,16.84,16.84,0,0,0-5.9,1A14.34,14.34,0,0,0,125,75.7a12.52,12.52,0,0,0-3,4A11.49,11.49,0,0,0,121,84.62a9.65,9.65,0,0,0,.8,4.12,10.51,10.51,0,0,0,4.61,5,20.69,20.69,0,0,0,2.66,1.2l7.18,2.66A21.77,21.77,0,0,1,140,99.3a8.07,8.07,0,0,1,2.09,1.73,4.83,4.83,0,0,1,.93,1.73,6.33,6.33,0,0,1,.22,1.64,7.05,7.05,0,0,1-.93,3.95,6.13,6.13,0,0,1-2.22,2,6.69,6.69,0,0,1-2.62.75c-.88.06-1.59.09-2.12.09a11.25,11.25,0,0,1-5.24-1.11,11.93,11.93,0,0,1-3.63-2.88,19.14,19.14,0,0,1-2.62-4.08q-1.11-2.31-2.17-4.79h-1.25v12.86h1.25a2.36,2.36,0,0,1,.57-1,1.56,1.56,0,0,1,1-.26,10.12,10.12,0,0,1,2.22.35q1.43.36,3.15.84c1.15.33,2.35.61,3.59.85a19.13,19.13,0,0,0,3.46.35,18.48,18.48,0,0,0,5.68-.89,15.41,15.41,0,0,0,4.83-2.52,13,13,0,0,0,3.37-4,10.74,10.74,0,0,0,1.29-5.27,10,10,0,0,0-2.49-7A17.42,17.42,0,0,0,141.08,88.25Z"/><path class="cls-1" d="M163.09,65.06a6.37,6.37,0,1,0-4.43-1.86A6.05,6.05,0,0,0,163.09,65.06Z"/><polygon class="cls-1" points="168.5 72.65 151.74 72.65 151.74 73.89 157.68 73.89 157.68 109.46 151.74 109.46 151.74 110.7 174.44 110.7 174.44 109.46 168.5 109.46 168.5 72.65"/><path class="cls-1" d="M210.2,100.94a16.71,16.71,0,0,1-.93,2.53,14.11,14.11,0,0,1-2.26,3.46,13.33,13.33,0,0,1-4,3,13.13,13.13,0,0,1-6.12,1.29,9.35,9.35,0,0,1-6-1.78,11.14,11.14,0,0,1-3.37-4.61,20.92,20.92,0,0,1-1.42-6.3c-.17-2.3-.26-4.61-.26-6.91q0-3.73.31-7.06a20.54,20.54,0,0,1,1.33-5.85,9.79,9.79,0,0,1,2.88-4,7.84,7.84,0,0,1,5.06-1.5,6.86,6.86,0,0,1,3.85,1A3.17,3.17,0,0,1,200.8,77a6.58,6.58,0,0,1-.22,1.24q-.22.88-.45,1.86c-.15.66-.29,1.28-.44,1.87a5.83,5.83,0,0,0-.22,1.24,3.06,3.06,0,0,0,1.73,3.15,9.33,9.33,0,0,0,3.77.75,6.66,6.66,0,0,0,4.25-1.2c1-.79,1.51-2.17,1.51-4.12a7.62,7.62,0,0,0-1.11-4,9.76,9.76,0,0,0-3.1-3.1,16.34,16.34,0,0,0-4.75-2,24.6,24.6,0,0,0-6.12-.71,21.27,21.27,0,0,0-9.36,2,23.09,23.09,0,0,0-6.83,4.92,20.75,20.75,0,0,0-4.21,6.52,18.45,18.45,0,0,0-1.42,6.83,21.27,21.27,0,0,0,1.29,7.8,17.22,17.22,0,0,0,7.94,9.14,27.11,27.11,0,0,0,4.92,2.08,23.69,23.69,0,0,0,4.52,1,32,32,0,0,0,3.24.22,18.56,18.56,0,0,0,7-1.15,15,15,0,0,0,4.57-2.8,12.22,12.22,0,0,0,2.71-3.54,21,21,0,0,0,1.37-3.51Z"/><path class="cls-1" d="M111.28,121.69h7.36l-11.26,25.64L96.56,121.69h6.21v-1.24H82.29v1.24h2.65l16.67,39.92L97.8,171.1c-.41,1.06-.9,2.25-1.46,3.55a26.83,26.83,0,0,1-2,3.68,12.62,12.62,0,0,1-2.49,2.88,4.52,4.52,0,0,1-3,1.15,1.79,1.79,0,0,1-1.24-.48,1.89,1.89,0,0,1-.53-1.47,4.48,4.48,0,0,1,.57-2.3,5,5,0,0,0,.58-2.58,3.06,3.06,0,0,0-1.51-2.79,6,6,0,0,0-3.19-.93,6.7,6.7,0,0,0-4,1.15A4.25,4.25,0,0,0,78,176.69,6.22,6.22,0,0,0,80.55,182a10.47,10.47,0,0,0,6.52,1.91A9,9,0,0,0,93,182a15.93,15.93,0,0,0,4-5.86q1.77-3.81,3.77-8.82l4.62-11.58q2.61-6.56,6.16-15t8.51-19.07h4.08v-1.24H111.28Z"/><path class="cls-1" d="M85.36,158.5v-1.24H79.51V120.45H62.83v1.24h5.85v22.89a16.11,16.11,0,0,1-.66,4.61,12.7,12.7,0,0,1-1.86,3.86,9.36,9.36,0,0,1-2.89,2.62,7.27,7.27,0,0,1-3.72,1q-3.37,0-4.7-2.35a11.41,11.41,0,0,1-1.33-5.72V120.45H26.65a17.24,17.24,0,0,0-6.87-1.24,23.07,23.07,0,0,0-7.23,1.06,16.69,16.69,0,0,0-5.45,2.89,12.75,12.75,0,0,0-3.42,4.25,11.63,11.63,0,0,0-1.2,5.19A9.21,9.21,0,0,0,3.06,136a10.73,10.73,0,0,0,1.42,2.57,12.6,12.6,0,0,0,1.82,1.95q1,.84,1.77,1.47a18.45,18.45,0,0,0-4.39,3.19,13.74,13.74,0,0,0-2.44,3.24,10.48,10.48,0,0,0-1,2.7,9.77,9.77,0,0,0-.22,1.6,7.71,7.71,0,0,0,1.33,4.61,9.77,9.77,0,0,0,3.28,2.93,14.74,14.74,0,0,0,4.22,1.51,21.56,21.56,0,0,0,4,.44v.18a23.63,23.63,0,0,0-4.12,1.5,19.67,19.67,0,0,0-3.82,2.35,11.34,11.34,0,0,0-2.79,3.24,8.42,8.42,0,0,0-1.07,4.26,11.09,11.09,0,0,0,.54,3.06,8.33,8.33,0,0,0,2.3,3.55,14.73,14.73,0,0,0,5.1,3,26.1,26.1,0,0,0,8.92,1.24,22.78,22.78,0,0,0,8.82-1.6,21.57,21.57,0,0,0,6.61-4.16A17.61,17.61,0,0,0,37.52,173a16.92,16.92,0,0,0,1.42-6.74,14.55,14.55,0,0,0-1.42-6.78,11.81,11.81,0,0,0-3.73-4.31,14.79,14.79,0,0,0-5.36-2.26,30.48,30.48,0,0,0-6.43-.66H12.24a9.26,9.26,0,0,1-4.79-1.07,3.56,3.56,0,0,1-1.77-3.28,6.16,6.16,0,0,1,.44-2.17c.3-.8,1.3-1.76,3-2.89a36.3,36.3,0,0,0,4.52,1.42,25,25,0,0,0,6.3.71,21.75,21.75,0,0,0,7.45-1.11,14.32,14.32,0,0,0,4.92-2.88A10.61,10.61,0,0,0,35.08,137a12,12,0,0,0,.84-4.39,10.17,10.17,0,0,0-1.24-5.54,24.68,24.68,0,0,0-2.3-3.06l-.8-.71a19.76,19.76,0,0,0-2.41-1.6H42.69v25.64q0,6.46,3.29,9.18t9.49,2.7a17.39,17.39,0,0,0,4-.48,15.26,15.26,0,0,0,3.86-1.51,14.12,14.12,0,0,0,3.24-2.49,9.48,9.48,0,0,0,2.12-3.41h.18v7.18Zm-61.5,3.91a13.38,13.38,0,0,1,2.93.35,7.75,7.75,0,0,1,2.92,1.33,7.65,7.65,0,0,1,2.22,2.62,9,9,0,0,1,.89,4.3,11.15,11.15,0,0,1-1.07,4.88A12.27,12.27,0,0,1,29,179.7a12.53,12.53,0,0,1-4,2.49,13.44,13.44,0,0,1-4.87.88,12.3,12.3,0,0,1-5.5-1.06,9.28,9.28,0,0,1-3.37-2.71,9.38,9.38,0,0,1-1.69-3.5,14.71,14.71,0,0,1-.44-3.46,9.92,9.92,0,0,1,1.46-5.68,20.41,20.41,0,0,1,4.13-4.25Zm1.82-24.17a9.22,9.22,0,0,1-1.38,3.46,4.25,4.25,0,0,1-2.13,1.59,9.08,9.08,0,0,1-2.83.4,11.22,11.22,0,0,1-2.84-.35,4.1,4.1,0,0,1-2.26-1.64,10.27,10.27,0,0,1-1.47-3.77,33.57,33.57,0,0,1-.53-6.66,29.06,29.06,0,0,1,.27-4,10.69,10.69,0,0,1,1-3.46,6.15,6.15,0,0,1,2.17-2.44,6.53,6.53,0,0,1,3.64-.93,6.69,6.69,0,0,1,3.72.89,5.63,5.63,0,0,1,2,2.48,11.73,11.73,0,0,1,.89,3.77c.12,1.45.18,3,.18,4.75A29.34,29.34,0,0,1,25.68,138.24Z"/></svg>