<svg id="Layer_1" data-name="Layer 1" xmlns="http://www.w3.org/2000/svg" viewBox="0 0 72.1 122.36"><defs><style>.cls-1{fill:#e79e99;}</style></defs><title>WINNIE  Brand Final</title><path class="cls-1" d="M42.33,11.48H72.1A11.47,11.47,0,0,0,60.63,0H11.48A11.48,11.48,0,0,0,0,11.48H30.86v6.73H0v4.36H30.86v6.74H0v4.36H30.86v6.74H0v4.36H30.86v6.74H0v4.36H30.86v6.74H0V67H30.86V73.7H0A11.48,11.48,0,0,0,11.48,85.18h1.14A11.45,11.45,0,0,0,24,96.07h6.83v26.29H42.33V96.07h5.74A11.45,11.45,0,0,0,59.49,85.18h1.14A11.47,11.47,0,0,0,72.1,73.7H42.33V67H72.1V62.61H42.33V55.87H72.1V51.51H42.33V44.77H72.1V40.41H42.33V33.67H72.1V29.31H42.33V22.57H72.1V18.21H42.33Z"/></svg>